<svg width="97" height="37" viewBox="0 0 97 37" fill="none" xmlns="http://www.w3.org/2000/svg">
<path d="M0.957143 28.0142C1.44286 26.1999 1.88571 24.6571 1.88571 21.5857V17.4571C1.88571 14.7571 1.32857 13.2142 0 11.6285V11.4857L7.78571 9.3428V21.5999C7.78571 24.6285 8.08571 26.2571 8.67143 28.0285V28.0999H0.957143V28.0142ZM4.28571 7.11423C3.43892 7.11423 2.6268 6.77784 2.02802 6.17906C1.42925 5.58029 1.09286 4.76817 1.09286 3.92137C1.09286 3.07457 1.42925 2.26246 2.02802 1.66368C2.6268 1.0649 3.43892 0.728516 4.28571 0.728516C6.05714 0.728516 7.52857 2.17137 7.52857 3.89994C7.52328 4.75575 7.17902 5.57457 6.57119 6.17704C5.96336 6.77951 5.14153 7.11651 4.28571 7.11423ZM31.7 25.0571C31.2891 25.3435 30.8008 25.4979 30.3 25.4999C29.1143 25.4999 28.7143 24.7285 28.7143 23.8428V14.6571C28.7143 11.5142 26.4286 9.52851 23.1714 9.52851C19.8857 9.52851 17.9714 11.4857 16.9714 13.0714L16.8286 13.0285V9.32852L9.18571 11.4714V11.5428C10.5143 13.1285 11.0286 14.6428 11.0286 17.4142L11.0714 21.5857C11.0714 24.6857 10.7429 26.2428 10.1429 28.0142V28.0857H17.8571V28.0142C17.2714 26.1999 16.9714 24.6571 16.9714 21.5857V14.0857C17.6714 13.0857 18.8571 12.2857 20.2143 12.2857C21.9857 12.2857 22.7571 13.4285 22.7571 15.0142V24.5428C22.7669 24.9545 22.8051 25.365 22.8714 25.7714C23.2 27.4285 24.5714 28.6142 26.8286 28.6142C29.9714 28.6142 31.2571 26.4428 31.7714 25.2142L31.7 25.0571ZM29.7286 31.5142C31.7286 31.6999 35.2286 31.7428 36.7857 29.1142L31.3857 15.7142C29.9143 12.1714 29.4 11.0999 28.5857 10.1714V10.0999H37.6286V10.1714C36.9714 11.0285 36.6714 13.4571 37.6714 15.9285L39.8857 21.6857L42.3143 15.8428C43.3857 13.1857 42.6857 11.0142 41.9429 10.1571V10.0857H46.6714V10.1571C45.4143 11.5285 44.5 12.6999 43.2429 15.7285L38.2571 27.6571C35.3 34.6428 33.1286 35.4142 29.7286 36.3714V31.5142ZM44.5 19.1142C44.5 13.9857 49 9.51423 54.4286 9.51423C59.8571 9.51423 64.3571 13.9857 64.3571 19.1142C64.3571 24.2428 59.8571 28.6428 54.4286 28.6428C49 28.6428 44.5 24.2428 44.5 19.1142ZM58.2429 19.1142C58.2429 13.8714 57.0571 10.2142 54.4429 10.2142C51.7857 10.2142 50.6429 13.8714 50.6429 19.1142C50.6429 24.3142 51.8286 27.9428 54.4429 27.9428C57.0571 27.9428 58.2286 24.3142 58.2429 19.1142ZM65.2857 15.7142C64.0286 12.4999 63.3286 11.2428 62.3714 10.1714V10.0999H71.5714V10.1714C70.9 11.0285 70.6857 13.3857 71.5714 15.6714L73.8286 21.5428L76.1429 15.9999C77.3286 13.2285 76.5143 10.9428 75.9286 10.1714V10.0999H80.5429V10.1714C79.2857 11.5428 78.4 12.6857 77.1143 15.7428L71.8286 28.3285H70.3857L65.2857 15.7142ZM88.1 25.7571C87.0714 27.2714 85.2857 28.6428 82.9286 28.6428C80.6714 28.6428 78.7571 27.4999 78.7571 24.9428C78.7571 20.9571 83.8143 19.2142 87.9857 18.3285V16.0428C87.9857 13.8714 87.1 12.8714 84.4429 12.8714C82.7927 12.886 81.1616 13.2258 79.6429 13.8714L79.5 13.6142C81.2571 11.4285 84.1429 9.51423 88.1714 9.51423C92.1572 9.51423 93.9286 11.4285 93.9286 14.3571V23.8428C93.9286 24.7285 94.3286 25.4999 95.5143 25.4999C96.0151 25.4979 96.5034 25.3435 96.9143 25.0571L96.9857 25.1999C96.4714 26.4142 95.1714 28.5999 92.0429 28.5999C89.7857 28.5999 88.4286 27.4142 88.1 25.7571ZM87.9857 25.0571V19.1142C85.3714 19.8142 83.9571 21.2857 83.9571 23.0285C83.9571 24.4714 84.8 25.4285 86.4286 25.4285C86.9712 25.4433 87.5082 25.3152 87.9857 25.0571Z" fill="#2F2C26"/>
</svg>
